Coordinates
version=1
nRows=13
nColumns=40
inDegrees=yes

Units are S.I. units (second, meters, Newtons, ...)
Angles are in degrees.

endheader
time	pelvis_tilt	pelvis_list	pelvis_rotation	pelvis_tx	pelvis_ty	pelvis_tz	hip_flexion_r	hip_adduction_r	hip_rotation_r	knee_angle_r	knee_angle_r_beta	ankle_angle_r	subtalar_angle_r	mtp_angle_r	hip_flexion_l	hip_adduction_l	hip_rotation_l	knee_angle_l	knee_angle_l_beta	ankle_angle_l	subtalar_angle_l	mtp_angle_l	lumbar_extension	lumbar_bending	lumbar_rotation	arm_flex_r	arm_add_r	arm_rot_r	elbow_flex_r	pro_sup_r	wrist_flex_r	wrist_dev_r	arm_flex_l	arm_add_l	arm_rot_l	elbow_flex_l	pro_sup_l	wrist_flex_l	wrist_dev_l
      1.28000000	     -3.34890753	     -1.50953730	     -3.55525926	     -0.18541573	      0.87678819	     -1.45376292	     -2.78384138	      1.09119144	     -9.32625655	    -26.89957703	     -0.46948619	     13.05911511	     -0.22884696	     -2.96819542	     31.60033710	      6.18121071	     12.72427067	    -27.63777291	     -0.48237014	      5.04975666	      7.59446770	      8.91771222	     -2.21227282	     -0.82435672	      2.49642501	      1.39224100	    -10.52906516	     -9.86302622	     42.37950001	     89.95437384	      0.00000000	      0.00000000	     -7.33498064	      6.82593587	     20.59625482	     24.72897317	     89.95437384	      0.00000000	      0.00000000
      1.29000000	     -3.72738696	     -1.27286039	     -3.73368465	     -0.17768285	      0.87608502	     -1.45539859	     -2.16912886	      0.79118351	     -8.30411490	    -28.16886240	     -0.49163940	     12.24350114	     -2.32544220	     -3.03279492	     31.91568539	      5.73192053	     12.24338527	    -28.12595359	     -0.49089050	      3.96563615	     10.18719571	      7.76316457	     -1.70254009	     -1.11454646	      2.55101512	      1.37531254	    -10.23263486	    -10.35508838	     41.84497838	     89.95437384	      0.00000000	      0.00000000	     -7.03198101	      6.93357324	     20.57346611	     24.25845641	     89.95437384	      0.00000000	      0.00000000
      1.30000000	     -3.65825006	     -1.16279679	     -3.62649345	     -0.16909715	      0.87605818	     -1.45719957	     -2.21735998	      0.48441803	     -8.09458402	    -29.22870913	     -0.51013721	     11.53329060	     -2.40880292	     -2.93557941	     31.80200862	      5.55536941	     12.09449656	    -28.96850632	     -0.50559581	      3.28050651	      9.99593151	      7.53484355	     -1.66200661	     -1.32530333	      2.26703143	      1.23152050	    -10.05408830	    -10.44216509	     41.59063126	     89.95437384	      0.00000000	      0.00000000	     -7.01795513	      7.09726942	     20.41897583	     24.33714271	     89.95437384	      0.00000000	      0.00000000
      1.31000000	     -3.60321223	     -1.06774954	     -3.53900922	     -0.16040786	      0.87623914	     -1.45894904	     -2.10848901	      0.12363521	     -8.23257465	    -30.54376787	     -0.53308932	     10.70120978	     -2.81029772	     -2.79233824	     31.64064649	      5.44097377	     12.22813294	    -29.71141138	     -0.51856195	      2.67652130	     10.24651323	      7.35144696	     -1.57291353	     -1.51267059	      2.06970504	      1.12086198	     -9.82126370	    -10.71901026	     41.07143918	     89.95437384	      0.00000000	      0.00000000	     -6.88317872	      7.26151013	     20.23533557	     24.22886439	     89.95437384	      0.00000000	      0.00000000
      1.32000000	     -3.77055640	     -0.76197593	     -3.46495773	     -0.15185235	      0.87630273	     -1.46081161	     -1.59309188	     -0.48665337	     -8.44084477	    -32.06141477	     -0.55957725	      9.30115422	     -3.63894090	     -2.48228471	     31.57063527	      4.96239385	     12.07906088	    -30.18765690	     -0.52687401	      2.45272014	     11.12547883	      7.05835324	     -1.20665611	     -1.90553862	      1.93296166	      0.90532180	     -9.45184184	    -11.33326548	     40.60832245	     89.95437384	      0.00000000	      0.00000000	     -6.71620423	      7.47986251	     20.03112461	     24.07408170	     89.95437384	      0.00000000	      0.00000000
      1.33000000	     -3.58024923	     -0.80125393	     -3.25817949	     -0.14324751	      0.87687639	     -1.46261777	     -1.50657747	     -0.61329541	     -8.28363047	    -33.53727472	     -0.58533587	      8.34105377	     -3.69771507	     -2.34113721	     31.15106063	      4.78068044	     11.66857708	    -30.77162755	     -0.53706622	      2.34727593	     10.92701654	      6.82387492	     -1.32691231	     -1.95226680	      1.57980095	      0.66927617	     -9.28885407	    -11.38703922	     40.43842950	     89.95437384	      0.00000000	      0.00000000	     -6.65274480	      7.66102964	     19.86667118	     24.28445303	     89.95437384	      0.00000000	      0.00000000
      1.34000000	     -3.54943190	     -0.46342947	     -3.08397476	     -0.13446717	      0.87737440	     -1.46496314	     -0.96931612	     -1.44628695	     -8.97735395	    -35.38189912	     -0.61753064	      6.18668736	     -4.51645666	     -1.85715844	     30.67283240	      4.04754803	     11.30024525	    -30.99138165	     -0.54090165	      2.75838777	     11.53217216	      6.50752717	     -1.15986472	     -2.35102970	      1.38237290	      0.42734116	     -9.03741985	    -11.78793384	     39.89878947	     89.95437384	      0.00000000	      0.00000000	     -6.42672739	      7.85466114	     19.64122854	     24.14429952	     89.95437384	      0.00000000	      0.00000000
      1.35000000	     -3.43828664	     -0.24931569	     -2.83763301	     -0.12603631	      0.87805467	     -1.46731357	     -0.42485137	     -2.05883423	     -9.36964155	    -37.31199981	     -0.65121725	      4.35883684	     -5.17517661	     -1.31599742	     30.10008980	      3.29223606	     10.49325924	    -31.08875531	     -0.54260114	      2.76616555	     12.15289151	      6.18884130	     -1.17552557	     -2.62508910	      1.09665729	      0.16824603	     -8.86087205	    -12.01722507	     39.59063716	     89.95437384	      0.00000000	      0.00000000	     -6.26492604	      8.02441686	     19.44077082	     24.31785969	     89.95437384	      0.00000000	      0.00000000
      1.36000000	     -3.44189641	     -0.19746129	     -2.41528732	     -0.11800422	      0.87848430	     -1.46989990	      0.37248108	     -2.52104467	     -9.93226685	    -39.38614252	     -0.68741787	      2.16578380	     -5.67913714	     -0.69757884	     29.82198552	      2.70544421	      9.67346616	    -31.45786661	     -0.54904335	      3.03225936	     12.31812352	      5.85883190	     -1.12005658	     -2.69536251	      0.60386740	     -0.06644821	     -8.74081944	    -12.15746334	     39.30427467	     89.95437384	      0.00000000	      0.00000000	     -6.07441915	      8.20882896	     19.20156457	     24.50818370	     89.95437384	      0.00000000	      0.00000000
      1.37000000	     -3.28064473	     -0.23496538	     -2.17638584	     -0.10981537	      0.87925581	     -1.47197274	      1.02917390	     -2.90200933	    -10.39919364	    -41.37447621	     -0.72212084	     -0.08656049	     -5.87991935	     -0.22113722	     29.25615422	      2.43765896	      9.44129344	    -31.73158928	     -0.55382071	      3.55535846	     12.40598139	      5.62206641	     -1.23436714	     -2.70500095	      0.28467877	     -0.30395923	     -8.62391336	    -12.16974988	     38.98195062	     89.95437384	      0.00000000	      0.00000000	     -5.86125768	      8.34816075	     19.10434800	     24.70708735	     89.95437384	      0.00000000	      0.00000000
      1.38000000	     -3.33879206	     -0.18324275	     -1.84120082	     -0.10232267	      0.87965391	     -1.47434354	      2.10549629	     -3.33050577	    -10.74163829	    -43.55198682	     -0.76012557	     -2.81579605	     -7.12788199	      0.83061718	     28.92647027	      1.85436398	      8.64729334	    -31.84194468	     -0.55574677	      3.76635973	     13.21513173	      5.47565666	     -1.18218421	     -2.76856541	     -0.06879710	     -0.54333295	     -8.53843664	    -12.14837183	     38.74568260	     89.95437384	      0.00000000	      0.00000000	     -5.59662028	      8.52308451	     18.90770511	     24.98627388	     89.95437384	      0.00000000	      0.00000000
      1.39000000	     -3.13346860	     -0.32740873	     -1.63853095	     -0.09459317	      0.88036807	     -1.47633158	      2.84040748	     -3.52730844	    -10.85980402	    -45.53360260	     -0.79471129	     -4.90436411	     -7.13967127	      1.23786898	     28.33589408	      1.75177181	      8.45335727	    -32.16587914	     -0.56140050	      4.28197267	     12.94468327	      5.26160856	     -1.39575649	     -2.62803026	     -0.30366981	     -0.72651301	     -8.50045325	    -12.06201230	     38.41154861	     89.95437384	      0.00000000	      0.00000000	     -5.32781057	      8.68026167	     18.72358388	     25.32912018	     89.95437384	      0.00000000	      0.00000000
      1.40000000	     -3.09085532	     -0.35210011	     -1.40048143	     -0.08713603	      0.88081585	     -1.47846002	      3.85570076	     -3.75135813	    -10.67986943	    -47.54869656	     -0.82988131	     -7.22340178	     -7.61035384	      1.79712254	     27.87366158	      1.48654770	      8.25759547	    -32.35957810	     -0.56478118	      4.96816266	     12.99192068	      5.07009119	     -1.44621024	     -2.60305484	     -0.61531630	     -0.93203026	     -8.46082595	    -11.85506438	     38.14150394	     89.95437384	      0.00000000	      0.00000000	     -5.05259403	      8.86083342	     18.49418870	     25.62365389	     89.95437384	      0.00000000	      0.00000000
